<?xml version="1.0" encoding="UTF-8"?>
<svg id="Layer_1" data-name="Layer 1" xmlns="http://www.w3.org/2000/svg" viewBox="0 0 483.3902448136 235.0318595787">
  <defs>
    <style>
      .cls-1 {
        stroke-width: 13.318025589px;
      }

      .cls-1, .cls-2, .cls-3 {
        stroke: #ed1c24;
        stroke-miterlimit: 10;
      }

      .cls-1, .cls-3 {
        fill: none;
      }

      .cls-2 {
        fill: #ed1c24;
        stroke-width: 1.7770051266px;
      }

      .cls-3 {
        stroke-width: 11.6532723904px;
      }
    </style>
  </defs>
  <g>
    <line class="cls-1" x1="435.9825185259" y1=".0462387521" x2="435.3992462023" y2="84.0434067745"/>
    <line class="cls-1" x1="361.5362093017" y1="78.4343100735" x2="441.5103625727" y2="77.4636790583"/>
    <line class="cls-1" x1="78.2705023291" y1=".0462387521" x2="78.8540272612" y2="84.0797875046"/>
    <line class="cls-1" x1="152.7178768763" y1="78.4343100768" x2="72.7437236053" y2="77.463679058"/>
    <line class="cls-1" x1="144.6129622241" y1="50.6062634574" x2="245.3482428991" y2="50.6062634574"/>
    <line class="cls-1" x1="238.9725922234" y1="124.5281182779" x2="238.9725922234" y2="44.0180910832"/>
    <line class="cls-3" x1="204.1515554843" y1="162.0787270937" x2="288.0651024258" y2="162.078727103"/>
    <line class="cls-3" x1="282.2036997034" y1="104.9471980628" x2="282.2036996979" y2="167.5994533458"/>
    <line class="cls-3" x1="397.971872692" y1="131.1606469137" x2="320.0359902176" y2="131.1606469184"/>
    <line class="cls-1" x1="357.338040113" y1="51.2438285169" x2="256.1777160596" y2="51.2438285123"/>
    <line class="cls-1" x1="262.3408450427" y1="124.5281182779" x2="262.3408450463" y2="44.443134471"/>
    <line class="cls-3" x1="325.2273075706" y1="71.1948278897" x2="325.2273075734" y2="137.0317503843"/>
    <g>
      <line class="cls-3" x1="88.083761" y1="102.6548646078" x2=".1690541397" y2="102.6548646017"/>
      <line class="cls-3" x1="5.8266361952" y1="194.8076437525" x2="5.8266361988" y2="96.8651511287"/>
    </g>
    <g>
      <line class="cls-3" x1="395.306483817" y1="102.6548646041" x2="483.2211906772" y2="102.654864602"/>
      <line class="cls-3" x1="477.5636086176" y1="194.8076437525" x2="477.5636086184" y2="96.8651511287"/>
    </g>
    <line class="cls-3" x1="82.3441072931" y1="163.3426297916" x2="188.8174735752" y2="163.3426298032"/>
    <line class="cls-3" x1="183.2934777652" y1="102.8623627109" x2="183.2934777548" y2="168.8681937121"/>
    <line class="cls-3" x1="88.0837610076" y1="122.2905234984" x2="88.0837609972" y2="163.5191857302"/>
  </g>
  <line class="cls-2" x1="35.6700362757" y1="232.822989565" x2="453.6436467899" y2="234.1433614487"/>
  <g>
    <path d="M60.9908126041,207.5688684696c1.259765625,.365234375,2.3706054688,.86328125,3.3325195312,1.4921875,3.18359375,1.890625,4.7919921875,6.9150390625,4.8251953125,15.072265625v1.193359375c-.033203125,.763671875-.4150390625,1.14453125-1.1440429688,1.14453125h-6.9140625c-.7631835938-.0322265625-1.1440429688-.4140625-1.1440429688-1.14453125v-1.193359375c0-5.3056640625-.8129882812-8.6875-2.4375-10.1474609375-1.625-1.458984375-3.9467773438-2.1884765625-6.9638671875-2.1884765625h-5.7202148438v13.529296875c0,.763671875-.365234375,1.14453125-1.0942382812,1.14453125h-6.9638671875c-.763671875,0-1.1279296875-.380859375-1.0947265625-1.14453125v-35.216796875c0-.7626953125,.3647460938-1.14453125,1.0947265625-1.14453125h6.9638671875c.7622070312,0,1.126953125,.3818359375,1.0942382812,1.14453125v13.529296875h5.7202148438c3.3491210938,0,5.5874023438-.646484375,6.7153320312-1.939453125,1.126953125-1.29296875,1.6909179688-4.7578125,1.6909179688-10.396484375v-1.193359375c0-.7626953125,.3647460938-1.14453125,1.0942382812-1.14453125h6.9638671875c.7626953125,0,1.1274414062,.3818359375,1.0947265625,1.14453125v1.193359375c0,8.224609375-2.3715820312,13.646484375-7.11328125,16.265625Z"/>
    <path d="M92.5772383854,227.1675012821h-.1494140625c-5.4716796875,0-9.583984375-1.3095703125-12.3359375-3.9296875-2.7856445312-2.619140625-4.1782226562-6.2177734375-4.1782226562-10.7939453125v-22.333984375c0-.7626953125,.3642578125-1.14453125,1.0942382812-1.14453125h6.9140625c.7626953125,0,1.1440429688,.3818359375,1.1440429688,1.14453125v22.2841796875c0,2.0888671875,.6962890625,3.6982421875,2.0893554688,4.8251953125,1.392578125,1.1279296875,3.1909179688,1.69140625,5.3969726562,1.69140625,2.205078125,0,3.8876953125-.5546875,5.048828125-1.6669921875,1.16015625-1.1103515625,1.7407226562-2.7265625,1.7407226562-4.849609375v-22.2841796875c0-.7626953125,.3647460938-1.14453125,1.0942382812-1.14453125h6.9638671875c.7626953125,0,1.1274414062,.3818359375,1.0947265625,1.14453125v22.333984375c0,4.5439453125-1.2685546875,8.1328125-3.8056640625,10.76953125-2.5366210938,2.6357421875-6.57421875,3.9541015625-12.1118164062,3.9541015625Z"/>
    <path d="M117.0005782291,188.9653528446h6.9638671875c.7622070312,0,1.126953125,.3818359375,1.0942382812,1.14453125v35.216796875c0,.763671875-.365234375,1.14453125-1.0942382812,1.14453125h-6.9638671875c-.763671875,0-1.1279296875-.380859375-1.0947265625-1.14453125v-35.216796875c-.033203125-.7626953125,.3310546875-1.14453125,1.0947265625-1.14453125Z"/>
    <path d="M166.2950118229,202.5200403446c0,3.4990234375-1.1118164062,6.5166015625-3.3330078125,9.0537109375-2.2221679688,2.5361328125-5.4887695312,3.8046875-9.7993164062,3.8046875h-11.3408203125v9.9482421875c0,.763671875-.365234375,1.14453125-1.0942382812,1.14453125h-6.9638671875c-.763671875,0-1.1279296875-.380859375-1.0947265625-1.14453125v-35.216796875c0-.7626953125,.3647460938-1.14453125,1.0947265625-1.14453125h19.3989257812c4.1787109375,0,7.4116210938,1.3857421875,9.6997070312,4.154296875,2.2885742188,2.7685546875,3.4326171875,5.90234375,3.4326171875,9.400390625Zm-24.4731445312-5.396484375v10.09765625h11.3408203125c2.6196289062,0,3.9296875-1.6826171875,3.9296875-5.048828125,0-3.365234375-1.3100585938-5.048828125-3.9296875-5.048828125h-11.3408203125Z"/>
    <path d="M181.9634688541,211.7973840946v6.5166015625h21.6875c.7622070312,0,1.1440429688,.380859375,1.1440429688,1.1435546875v5.869140625c0,.763671875-.3818359375,1.14453125-1.1440429688,1.14453125h-29.7456054688c-.763671875,0-1.1279296875-.380859375-1.0947265625-1.14453125v-35.216796875c0-.7626953125,.3647460938-1.14453125,1.0947265625-1.14453125h29.248046875c.7626953125,0,1.1440429688,.3818359375,1.1440429688,1.14453125v5.9189453125c0,.763671875-.3813476562,1.1279296875-1.1440429688,1.0947265625h-21.1899414062v6.515625h19.6479492188c.7626953125,0,1.1440429688,.3818359375,1.1440429688,1.14453125v5.9189453125c0,.763671875-.3813476562,1.1279296875-1.1440429688,1.0947265625h-19.6479492188Z"/>
    <path d="M239.6641524479,209.1606653446c.2983398438,.1328125,.5966796875,.2666015625,.8950195312,.3984375,3.18359375,1.55859375,4.7924804688,6.4169921875,4.8256835938,14.57421875v1.193359375c-.033203125,.763671875-.4150390625,1.14453125-1.14453125,1.14453125h-6.9140625c-.7631835938-.0322265625-1.1440429688-.4140625-1.1440429688-1.14453125v-1.193359375c0-5.3056640625-.8129882812-8.513671875-2.4375-9.625-1.625-1.1103515625-3.9467773438-1.666015625-6.9638671875-1.666015625h-5.7202148438v12.484375c0,.763671875-.365234375,1.14453125-1.0942382812,1.14453125h-6.9638671875c-.763671875,0-1.1279296875-.380859375-1.0947265625-1.14453125v-35.216796875c0-.7626953125,.3647460938-1.14453125,1.0947265625-1.14453125h19.3989257812c4.1118164062,0,7.3286132812,1.00390625,9.650390625,3.009765625,2.3212890625,2.0068359375,3.482421875,4.75,3.482421875,8.232421875,0,4.509765625-1.9575195312,7.494140625-5.8701171875,8.953125Zm-18.603515625-12.037109375v7.560546875h11.3408203125c2.6196289062,0,3.9296875-1.29296875,3.9296875-3.8798828125,0-2.453125-1.3100585938-3.6806640625-3.9296875-3.6806640625h-11.3408203125Z"/>
    <path d="M252.6465743229,215.2788294071v-2.884765625c0-.7626953125,.365234375-1.126953125,1.0947265625-1.09375h21.48828125c.7626953125,0,1.14453125,.365234375,1.14453125,1.09375v2.884765625c.0322265625,.763671875-.3486328125,1.1279296875-1.14453125,1.0947265625h-21.48828125c-.7294921875,.033203125-1.0947265625-.3310546875-1.0947265625-1.0947265625Z"/>
    <path d="M315.7696211979,219.4575403446v5.869140625c0,.763671875-.3818359375,1.14453125-1.14453125,1.14453125h-14.8232421875c-5.669921875,0-9.9482421875-1.599609375-12.8330078125-4.7998046875s-4.3271484375-7.826171875-4.3271484375-13.8779296875,1.4248046875-10.703125,4.27734375-13.953125c2.8515625-3.2490234375,7.1455078125-4.875,12.8828125-4.875h14.8232421875c.7626953125,0,1.14453125,.3818359375,1.14453125,1.14453125v5.9189453125c0,.763671875-.3818359375,1.1279296875-1.14453125,1.0947265625h-14.8232421875c-2.2880859375,0-4.103515625,.8291015625-5.4462890625,2.4873046875s-2.0146484375,4.2275390625-2.0146484375,7.7099609375c0,3.4814453125,.6220703125,6.1845703125,1.865234375,8.107421875,1.244140625,1.923828125,3.109375,2.8857421875,5.595703125,2.8857421875h14.8232421875c.7626953125,0,1.14453125,.380859375,1.14453125,1.1435546875Z"/>
    <path d="M347.4551680729,188.9653528446h6.9638671875c.76171875,0,1.126953125,.3818359375,1.09375,1.14453125v35.216796875c0,.763671875-.365234375,1.14453125-1.09375,1.14453125h-6.9638671875c-.763671875,0-1.1279296875-.380859375-1.0947265625-1.14453125v-13.529296875h-14.2763671875v13.529296875c0,.763671875-.365234375,1.14453125-1.09375,1.14453125h-6.9638671875c-.763671875,0-1.1279296875-.380859375-1.0947265625-1.14453125v-35.216796875c0-.7626953125,.3642578125-1.14453125,1.0947265625-1.14453125h6.9638671875c.7626953125,0,1.126953125,.3818359375,1.09375,1.14453125v13.529296875h14.2763671875v-13.529296875c-.033203125-.7626953125,.3310546875-1.14453125,1.0947265625-1.14453125Z"/>
    <path d="M363.8194258854,226.4712122196c-.7294921875,0-1.09375-.380859375-1.09375-1.14453125v-13.828125c0-8.1240234375,1.591796875-13.91015625,4.775390625-17.359375,3.1826171875-3.44921875,7.775390625-5.173828125,13.7783203125-5.173828125h12.8828125c.7294921875,0,1.1103515625,.3818359375,1.14453125,1.14453125v35.216796875c0,.73046875-.3818359375,1.1123046875-1.14453125,1.14453125h-6.9140625c-.7294921875,0-1.0947265625-.380859375-1.0947265625-1.14453125v-5.7197265625h-14.275390625v5.7197265625c0,.73046875-.3818359375,1.1123046875-1.14453125,1.14453125h-6.9140625Zm22.333984375-29.34765625h-4.8740234375c-3.0185546875,0-5.33984375,1.0693359375-6.9638671875,3.2080078125-1.625,2.138671875-2.4375,5.8447265625-2.4375,11.1171875h14.275390625v-14.3251953125Z"/>
    <path d="M404.0118086979,188.9653528446h6.9638671875c.7626953125,0,1.126953125,.3818359375,1.09375,1.14453125v35.216796875c0,.763671875-.365234375,1.14453125-1.09375,1.14453125h-6.9638671875c-.763671875,0-1.1279296875-.380859375-1.0947265625-1.14453125v-35.216796875c-.033203125-.7626953125,.3310546875-1.14453125,1.0947265625-1.14453125Z"/>
    <path d="M451.1670821354,226.4712122196h-6.9638671875c-.763671875-.0322265625-1.1279296875-.4140625-1.0947265625-1.14453125v-17.4091796875c0-3.7138671875-.6640625-6.44140625-1.9892578125-8.1826171875-1.3271484375-1.7412109375-3.1337890625-2.611328125-5.421875-2.611328125h-6.865234375v28.203125c-.033203125,.763671875-.3974609375,1.14453125-1.09375,1.14453125h-6.9638671875c-.763671875-.0322265625-1.1279296875-.4140625-1.0947265625-1.14453125v-35.216796875c.033203125-.7626953125,.3984375-1.14453125,1.0947265625-1.14453125h14.9228515625c5.537109375,0,9.681640625,1.6259765625,12.4345703125,4.875,2.7529296875,3.25,4.12890625,7.9423828125,4.12890625,14.0771484375v17.4091796875c0,.763671875-.365234375,1.14453125-1.09375,1.14453125Z"/>
  </g>
</svg>